<?xml version="1.0" encoding="utf-8"?>
<!-- Generator: Adobe Illustrator 25.3.1, SVG Export Plug-In . SVG Version: 6.00 Build 0)  -->
<svg version="1.1" id="Layer_1" xmlns="http://www.w3.org/2000/svg" xmlns:xlink="http://www.w3.org/1999/xlink" x="0px" y="0px"
	 viewBox="0 0 720 252" style="enable-background:new 0 0 720 252;" xml:space="preserve">
<style type="text/css">
	.st0{fill:#F0B31D;}
	.st1{fill:#FFFFFF;}
</style>
<g>
	<path class="st0" d="M212.36,64.02l-102.3,59.06L12.04,66.39l10.67-6.14l87.31,50.41L201.6,57.8L109.72,4.83L92.32,14.87v67.59
		l19.89,11.48V30.13l10.85,6.27v48.76l20.08-11.59V47.99l11.41,6.62c-0.26,0.87-0.41,1.8-0.41,2.75c0,5.3,4.31,9.62,9.62,9.62
		c5.3,0,9.62-4.31,9.62-9.62s-4.31-9.62-9.62-9.62c-2.7,0-5.14,1.12-6.89,2.92l-18.24-10.48v30.78l-11.07,6.39V33.79l-19.86-11.48
		l-0.01,63.82l-10.88-6.28V17.47l12.96-7.48l82.8,47.81l-82.56,47.66L22.72,55.06l-18,10.38v2.16l103.05,59.45V240.7l-11.15-6.42
		l0.26-100.81L4.72,80.3L4.63,186.67l17.52,10.12l59.29-34.23v-22.77l-55.4,31.98v-12.89l42.02-24.26l-20.09-11.6l-21.93,12.66
		l-0.05-13.04c4.2-1.03,7.33-4.82,7.33-9.33c0-5.3-4.31-9.62-9.62-9.62s-9.62,4.31-9.62,9.62c0,4.51,3.13,8.3,7.33,9.33l-0.01,20.94
		l26.56-15.35l11.08,6.4l-37.52,21.66v23.29l55.4-31.98v12.37l-54.63,31.72l-13.15-7.59L9.3,88.14l82.99,47.97l-0.16,100.67
		l18,10.39l2.21-1.27V127.05l98.14-56.66v12.42l-87.62,50.74l0.27,106.31L215,186.84v-20.77l-59.26-34.22l-19.85,11.47l55.52,32.05
		l-10.88,6.28l-41.88-24.18v22.92l22.04,12.72l-10.98,6.54c-1.76-2.02-4.35-3.31-7.24-3.31c-5.3,0-9.62,4.31-9.62,9.62
		s4.31,9.62,9.62,9.62s9.62-4.31,9.62-9.62c0-0.77-0.1-1.52-0.27-2.24l17.89-10.6l-26.54-15.32v-12.51l37.38,21.58l19.89-11.48
		l-55.37-31.97l10.97-6.2l54.49,31.46v15.56l-82.79,47.8l-0.25-95.92L215,85.56V65.55L212.36,64.02z M163.77,52.33
		c2.78,0,5.04,2.26,5.04,5.04c0,2.78-2.26,5.04-5.04,5.04c-2.78,0-5.04-2.26-5.04-5.04C158.72,54.59,160.99,52.33,163.77,52.33z
		 M18.67,113.31c0-2.78,2.26-5.04,5.04-5.04c2.78,0,5.04,2.26,5.04,5.04c0,2.78-2.26,5.04-5.04,5.04
		C20.93,118.35,18.67,116.09,18.67,113.31z M142.45,211.01c-2.78,0-5.04-2.26-5.04-5.04c0-2.78,2.26-5.04,5.04-5.04
		c2.78,0,5.04,2.26,5.04,5.04C147.49,208.74,145.23,211.01,142.45,211.01z"/>
	<g>
		<path class="st1" d="M236.33,64.26h6.98v33.02h-6.98V64.26z"/>
		<path class="st1" d="M249.71,64.26h6.79l12.71,17.95c0.38,0.54,1.03,1.62,1.93,3.22l0.24-0.14l-0.14-2.79V64.26h6.79v33.02h-6.79
			l-12.76-18.1c-0.61-0.87-1.24-1.93-1.88-3.18l-0.24,0.14c0.1,1.38,0.14,2.34,0.14,2.89v18.24h-6.79V64.26z"/>
		<path class="st1" d="M290.17,96.68c-2.1-0.79-3.78-1.95-5.03-3.49c-1.25-1.54-1.88-3.4-1.88-5.58l0.05-1.06h7.08l-0.05,0.77
			c0,1.41,0.63,2.54,1.88,3.37c1.25,0.83,3,1.25,5.25,1.25c2.37,0,4.09-0.31,5.15-0.94c1.06-0.63,1.59-1.47,1.59-2.53
			c0-0.93-0.35-1.71-1.03-2.34c-0.69-0.63-1.56-1.12-2.6-1.49c-1.04-0.37-2.48-0.81-4.31-1.32c-2.6-0.74-4.7-1.44-6.31-2.12
			c-1.61-0.67-2.98-1.68-4.14-3.01c-1.16-1.33-1.73-3.09-1.73-5.27c0-3.02,1.22-5.31,3.66-6.88c2.44-1.57,5.68-2.36,9.72-2.36
			c3.82,0,6.94,0.81,9.36,2.43c2.42,1.62,3.63,4.05,3.63,7.29v0.58h-6.93v-0.43c0-1.22-0.55-2.18-1.66-2.89
			c-1.11-0.71-2.61-1.06-4.5-1.06c-2.02,0-3.57,0.27-4.65,0.82c-1.08,0.54-1.61,1.3-1.61,2.26c0,0.74,0.32,1.37,0.96,1.9
			c0.64,0.53,1.44,0.96,2.41,1.3c0.96,0.34,2.33,0.75,4.09,1.23c2.63,0.71,4.79,1.4,6.48,2.09c1.68,0.69,3.14,1.71,4.36,3.06
			c1.22,1.35,1.83,3.11,1.83,5.3c0,3.53-1.26,6.13-3.78,7.8c-2.52,1.67-5.96,2.5-10.33,2.5C294.59,97.86,292.27,97.46,290.17,96.68z
			"/>
		<path class="st1" d="M324.56,70.28h-10.21v-6.02h27.39v6.02h-10.2v27h-6.98V70.28z"/>
		<path class="st1" d="M347.9,64.26h6.98v33.02h-6.98V64.26z"/>
		<path class="st1" d="M369.27,70.28h-10.2v-6.02h27.39v6.02h-10.2v27h-6.98V70.28z"/>
		<path class="st1" d="M394.4,94.58c-2.47-2.18-3.71-5.38-3.71-9.58V64.26h6.98v20.41c0,2.37,0.62,4.18,1.85,5.41
			c1.24,1.24,2.99,1.85,5.27,1.85c2.28,0,4.05-0.62,5.32-1.85c1.27-1.24,1.9-3.04,1.9-5.41V64.26H419V85c0,4.2-1.24,7.4-3.73,9.58
			c-2.49,2.18-5.98,3.27-10.47,3.27C400.34,97.86,396.87,96.77,394.4,94.58z"/>
		<path class="st1" d="M433.44,70.28h-10.2v-6.02h27.39v6.02h-10.2v27h-6.98V70.28z"/>
		<path class="st1" d="M454.86,64.26h25.95v5.92h-18.97v7.27h16.85v5.92h-16.85v7.99h19.25v5.92h-26.23V64.26z"/>
		<path class="st1" d="M498.42,64.26h23.92v5.92H505.4v8.13h15.16v5.92H505.4v13.05h-6.98V64.26z"/>
		<path class="st1" d="M531.01,93.6c-2.92-2.84-4.38-7.12-4.38-12.83c0-5.71,1.46-9.99,4.38-12.83c2.92-2.84,7.03-4.26,12.32-4.26
			c5.33,0,9.45,1.42,12.37,4.26c2.92,2.84,4.38,7.12,4.38,12.83c0,5.71-1.46,9.99-4.38,12.83c-2.92,2.84-7.04,4.26-12.37,4.26
			C538.04,97.86,533.93,96.44,531.01,93.6z M550.48,89.22c1.62-1.81,2.43-4.39,2.43-7.73v-1.44c0-3.34-0.81-5.91-2.43-7.73
			c-1.62-1.81-4-2.72-7.15-2.72c-3.15,0-5.52,0.91-7.12,2.72c-1.61,1.81-2.41,4.39-2.41,7.73v1.44c0,3.34,0.8,5.91,2.41,7.73
			c1.6,1.81,3.98,2.72,7.12,2.72C546.48,91.94,548.86,91.03,550.48,89.22z"/>
		<path class="st1" d="M565.28,64.26h17.52c3.69,0,6.47,0.91,8.33,2.72c1.86,1.81,2.79,4.36,2.79,7.63c0,4.62-1.93,7.7-5.78,9.24
			l6.74,13.43h-7.56l-5.82-12.32h-9.24v12.32h-6.98V64.26z M582.18,79.13c1.51,0,2.66-0.4,3.47-1.2c0.8-0.8,1.2-1.91,1.2-3.32
			c0-1.41-0.4-2.5-1.2-3.27c-0.8-0.77-1.96-1.15-3.47-1.15h-9.92v8.95H582.18z"/>
		<path class="st1" d="M236.33,109.49h6.98v33.02h-6.98V109.49z"/>
		<path class="st1" d="M249.71,109.49h6.79l12.71,17.95c0.38,0.55,1.03,1.62,1.93,3.22l0.24-0.14l-0.14-2.79v-18.24h6.79v33.02
			h-6.79l-12.76-18.1c-0.61-0.87-1.24-1.93-1.88-3.18l-0.24,0.14c0.1,1.38,0.14,2.34,0.14,2.89v18.24h-6.79V109.49z"/>
		<path class="st1" d="M292.45,115.51h-10.21v-6.02h27.39v6.02h-10.2v27h-6.98V115.51z"/>
		<path class="st1" d="M313.87,109.49h25.95v5.92h-18.97v7.27h16.85v5.92h-16.85v7.99h19.25v5.92h-26.23V109.49z"/>
		<path class="st1" d="M345.98,109.49h17.52c3.69,0,6.47,0.91,8.33,2.72c1.86,1.81,2.79,4.36,2.79,7.63c0,4.62-1.93,7.7-5.78,9.24
			l6.74,13.43h-7.56l-5.82-12.32h-9.24v12.32h-6.98V109.49z M362.87,124.36c1.51,0,2.66-0.4,3.47-1.2c0.8-0.8,1.2-1.91,1.2-3.32
			s-0.4-2.5-1.2-3.27c-0.8-0.77-1.96-1.16-3.47-1.16h-9.92v8.95H362.87z"/>
		<path class="st1" d="M380.73,109.49h13.67c5.04,0,8.93,1.37,11.67,4.12c2.74,2.74,4.12,6.88,4.12,12.39
			c0,5.52-1.37,9.65-4.12,12.39c-2.74,2.74-6.63,4.12-11.67,4.12h-13.67V109.49z M394.4,136.59c2.82,0,4.97-0.86,6.43-2.58
			c1.46-1.72,2.19-4.15,2.19-7.29v-1.44c0-3.14-0.73-5.58-2.19-7.29c-1.46-1.72-3.6-2.58-6.43-2.58h-6.69v21.18H394.4z"/>
		<path class="st1" d="M415.49,109.49h6.98v33.02h-6.98V109.49z"/>
		<path class="st1" d="M434.57,141.91c-2.1-0.79-3.78-1.95-5.03-3.49c-1.25-1.54-1.88-3.4-1.88-5.58l0.05-1.06h7.08l-0.05,0.77
			c0,1.41,0.63,2.54,1.88,3.37c1.25,0.83,3,1.25,5.25,1.25c2.37,0,4.09-0.31,5.15-0.94c1.06-0.63,1.59-1.47,1.59-2.53
			c0-0.93-0.35-1.71-1.03-2.34c-0.69-0.63-1.56-1.12-2.6-1.49c-1.04-0.37-2.48-0.81-4.31-1.32c-2.6-0.74-4.7-1.44-6.31-2.12
			c-1.61-0.67-2.98-1.68-4.14-3.01c-1.16-1.33-1.73-3.09-1.73-5.27c0-3.02,1.22-5.31,3.66-6.88c2.44-1.57,5.68-2.36,9.72-2.36
			c3.82,0,6.94,0.81,9.36,2.43c2.42,1.62,3.63,4.05,3.63,7.29v0.58h-6.93v-0.43c0-1.22-0.55-2.18-1.66-2.89
			c-1.11-0.71-2.61-1.06-4.5-1.06c-2.02,0-3.57,0.27-4.65,0.82c-1.08,0.55-1.61,1.3-1.61,2.26c0,0.74,0.32,1.37,0.96,1.9
			s1.44,0.96,2.41,1.3c0.96,0.34,2.33,0.75,4.09,1.23c2.63,0.7,4.79,1.4,6.47,2.09c1.69,0.69,3.14,1.71,4.36,3.06
			c1.22,1.35,1.83,3.11,1.83,5.29c0,3.53-1.26,6.13-3.78,7.8c-2.52,1.67-5.96,2.5-10.33,2.5
			C438.99,143.09,436.67,142.7,434.57,141.91z"/>
		<path class="st1" d="M459.77,126c0-5.71,1.4-9.99,4.19-12.83c2.79-2.84,6.72-4.26,11.79-4.26c2.79,0,5.3,0.47,7.53,1.42
			c2.23,0.95,3.99,2.39,5.29,4.33c1.3,1.94,1.95,4.31,1.95,7.1h-7.17c0-2.15-0.69-3.84-2.07-5.08c-1.38-1.23-3.18-1.85-5.39-1.85
			c-3.02,0-5.26,0.9-6.74,2.7c-1.48,1.8-2.21,4.38-2.21,7.75v1.44c0,6.96,2.98,10.45,8.95,10.45c2.34,0,4.21-0.61,5.61-1.83
			c1.4-1.22,2.09-2.9,2.09-5.06h6.93c0,2.83-0.64,5.19-1.93,7.1c-1.28,1.91-3.03,3.34-5.25,4.28c-2.21,0.95-4.75,1.42-7.61,1.42
			C465.1,143.09,459.77,137.39,459.77,126z"/>
		<path class="st1" d="M495.73,109.49h6.98v33.02h-6.98V109.49z"/>
		<path class="st1" d="M509.11,109.49h15.74c3.69,0,6.47,0.94,8.33,2.82c1.86,1.88,2.79,4.53,2.79,7.97c0,3.43-0.97,6.11-2.91,8.01
			c-1.94,1.91-4.84,2.86-8.69,2.86h-8.28v11.36h-6.98V109.49z M524.22,125.23c1.51,0,2.66-0.43,3.47-1.3c0.8-0.87,1.2-2.09,1.2-3.66
			c0-1.54-0.4-2.74-1.2-3.59c-0.8-0.85-1.96-1.28-3.47-1.28h-8.13v9.82H524.22z"/>
		<path class="st1" d="M541.21,109.49h6.98v26.95H566v6.07h-24.79V109.49z"/>
		<path class="st1" d="M570.62,109.49h6.98v33.02h-6.98V109.49z"/>
		<path class="st1" d="M584.01,109.49h6.79l12.71,17.95c0.38,0.55,1.03,1.62,1.92,3.22l0.24-0.14l-0.14-2.79v-18.24h6.79v33.02
			h-6.79l-12.76-18.1c-0.61-0.87-1.24-1.93-1.88-3.18l-0.24,0.14c0.1,1.38,0.14,2.34,0.14,2.89v18.24h-6.79V109.49z"/>
		<path class="st1" d="M628.53,109.49h8.76l12.9,33.02h-7.61l-2.36-6.31h-15.02l-2.36,6.31h-7.22L628.53,109.49z M638.01,130.38
			l-3.13-8.38c-0.39-1.03-1.08-3.19-2.07-6.5h-0.24c-1,3.31-1.69,5.47-2.07,6.5l-3.13,8.38H638.01z"/>
		<path class="st1" d="M653.51,109.49h17.52c3.69,0,6.47,0.91,8.33,2.72c1.86,1.81,2.79,4.36,2.79,7.63c0,4.62-1.93,7.7-5.78,9.24
			l6.74,13.43h-7.56l-5.82-12.32h-9.24v12.32h-6.98V109.49z M670.41,124.36c1.51,0,2.66-0.4,3.47-1.2c0.8-0.8,1.2-1.91,1.2-3.32
			s-0.4-2.5-1.2-3.27c-0.8-0.77-1.96-1.16-3.47-1.16h-9.92v8.95H670.41z"/>
		<path class="st1" d="M695.87,129.18l-12.61-19.69h7.94l8.23,13.48h0.24l8.13-13.48h7.56l-12.52,19.69v13.33h-6.98V129.18z"/>
		<path class="st1" d="M236.33,154.72H250c5.04,0,8.93,1.37,11.67,4.12c2.74,2.74,4.12,6.88,4.12,12.39c0,5.52-1.37,9.65-4.12,12.39
			c-2.74,2.74-6.64,4.12-11.67,4.12h-13.67V154.72z M250,181.82c2.82,0,4.96-0.86,6.43-2.58c1.46-1.72,2.19-4.15,2.19-7.29v-1.44
			c0-3.14-0.73-5.58-2.19-7.29c-1.46-1.72-3.6-2.58-6.43-2.58h-6.69v21.18H250z"/>
		<path class="st1" d="M278.93,154.72h8.76l12.9,33.02h-7.61l-2.36-6.31h-15.02l-2.36,6.31h-7.22L278.93,154.72z M288.41,175.61
			l-3.13-8.38c-0.38-1.03-1.08-3.19-2.07-6.5h-0.24c-0.99,3.31-1.68,5.47-2.07,6.5l-3.13,8.38H288.41z"/>
		<path class="st1" d="M308.34,160.74h-10.2v-6.02h27.39v6.02h-10.2v27h-6.98V160.74z"/>
		<path class="st1" d="M335.97,154.72h8.76l12.9,33.02h-7.61l-2.36-6.31h-15.02l-2.36,6.31h-7.22L335.97,154.72z M345.45,175.61
			l-3.13-8.38c-0.38-1.03-1.08-3.19-2.07-6.5h-0.24c-1,3.31-1.69,5.47-2.07,6.5l-3.13,8.38H345.45z"/>
		<path class="st1" d="M376.33,187.14c-2.1-0.79-3.78-1.95-5.03-3.49c-1.25-1.54-1.88-3.4-1.88-5.58l0.05-1.06h7.08l-0.05,0.77
			c0,1.41,0.63,2.54,1.88,3.37c1.25,0.83,3,1.25,5.25,1.25c2.37,0,4.09-0.31,5.15-0.94c1.06-0.63,1.59-1.47,1.59-2.53
			c0-0.93-0.35-1.71-1.03-2.34c-0.69-0.63-1.56-1.12-2.6-1.49c-1.04-0.37-2.48-0.81-4.31-1.32c-2.6-0.74-4.7-1.44-6.31-2.12
			c-1.61-0.67-2.98-1.68-4.14-3.01c-1.16-1.33-1.73-3.09-1.73-5.27c0-3.02,1.22-5.31,3.66-6.88c2.44-1.57,5.68-2.36,9.72-2.36
			c3.82,0,6.94,0.81,9.36,2.43c2.42,1.62,3.63,4.05,3.63,7.29v0.58h-6.93v-0.43c0-1.22-0.55-2.18-1.66-2.89
			c-1.11-0.71-2.61-1.06-4.5-1.06c-2.02,0-3.57,0.27-4.65,0.82c-1.08,0.55-1.61,1.3-1.61,2.26c0,0.74,0.32,1.37,0.96,1.9
			c0.64,0.53,1.44,0.96,2.41,1.3c0.96,0.34,2.33,0.75,4.09,1.23c2.63,0.7,4.79,1.4,6.47,2.09c1.69,0.69,3.14,1.71,4.36,3.06
			c1.22,1.35,1.83,3.11,1.83,5.29c0,3.53-1.26,6.13-3.78,7.8c-2.52,1.67-5.96,2.5-10.33,2.5
			C380.75,188.32,378.43,187.93,376.33,187.14z"/>
		<path class="st1" d="M401.53,171.23c0-5.71,1.4-9.99,4.19-12.83c2.79-2.84,6.72-4.26,11.79-4.26c2.79,0,5.3,0.47,7.53,1.42
			c2.23,0.95,3.99,2.39,5.29,4.33c1.3,1.94,1.95,4.31,1.95,7.1h-7.17c0-2.15-0.69-3.84-2.07-5.08c-1.38-1.23-3.18-1.85-5.39-1.85
			c-3.02,0-5.26,0.9-6.74,2.7c-1.48,1.8-2.21,4.38-2.21,7.75v1.44c0,6.96,2.98,10.45,8.95,10.45c2.34,0,4.21-0.61,5.61-1.83
			c1.4-1.22,2.09-2.9,2.09-5.06h6.93c0,2.83-0.64,5.19-1.93,7.1c-1.28,1.91-3.03,3.34-5.25,4.28c-2.21,0.95-4.75,1.42-7.61,1.42
			C406.86,188.32,401.53,182.62,401.53,171.23z"/>
		<path class="st1" d="M437.49,154.72h6.98v33.02h-6.98V154.72z"/>
		<path class="st1" d="M450.87,154.72h25.95v5.92h-18.97v7.27h16.85v5.92h-16.85v7.99h19.25v5.92h-26.23V154.72z"/>
		<path class="st1" d="M482.97,154.72h6.79l12.71,17.95c0.38,0.55,1.03,1.62,1.93,3.22l0.24-0.14l-0.14-2.79v-18.24h6.79v33.02
			h-6.79l-12.76-18.1c-0.61-0.87-1.24-1.93-1.88-3.18l-0.24,0.14c0.1,1.38,0.14,2.34,0.14,2.89v18.24h-6.79V154.72z"/>
		<path class="st1" d="M516.52,171.23c0-5.71,1.4-9.99,4.19-12.83c2.79-2.84,6.72-4.26,11.79-4.26c2.79,0,5.3,0.47,7.53,1.42
			c2.23,0.95,3.99,2.39,5.29,4.33c1.3,1.94,1.95,4.31,1.95,7.1h-7.17c0-2.15-0.69-3.84-2.07-5.08c-1.38-1.23-3.18-1.85-5.39-1.85
			c-3.02,0-5.26,0.9-6.74,2.7c-1.48,1.8-2.21,4.38-2.21,7.75v1.44c0,6.96,2.98,10.45,8.95,10.45c2.34,0,4.21-0.61,5.61-1.83
			c1.4-1.22,2.09-2.9,2.09-5.06h6.93c0,2.83-0.64,5.19-1.93,7.1c-1.28,1.91-3.03,3.34-5.25,4.28c-2.21,0.95-4.75,1.42-7.61,1.42
			C521.85,188.32,516.52,182.62,516.52,171.23z"/>
		<path class="st1" d="M552.48,154.72h25.95v5.92h-18.97v7.27h16.85v5.92h-16.85v7.99h19.25v5.92h-26.23V154.72z"/>
		<path class="st1" d="M590.29,187.14c-2.1-0.79-3.78-1.95-5.03-3.49c-1.25-1.54-1.88-3.4-1.88-5.58l0.05-1.06h7.08l-0.05,0.77
			c0,1.41,0.63,2.54,1.88,3.37s3,1.25,5.25,1.25c2.37,0,4.09-0.31,5.15-0.94c1.06-0.63,1.59-1.47,1.59-2.53
			c0-0.93-0.35-1.71-1.03-2.34c-0.69-0.63-1.56-1.12-2.6-1.49c-1.04-0.37-2.48-0.81-4.31-1.32c-2.6-0.74-4.7-1.44-6.31-2.12
			c-1.61-0.67-2.98-1.68-4.14-3.01c-1.16-1.33-1.73-3.09-1.73-5.27c0-3.02,1.22-5.31,3.66-6.88c2.44-1.57,5.68-2.36,9.72-2.36
			c3.82,0,6.94,0.81,9.36,2.43c2.42,1.62,3.63,4.05,3.63,7.29v0.58h-6.93v-0.43c0-1.22-0.55-2.18-1.66-2.89
			c-1.11-0.71-2.61-1.06-4.5-1.06c-2.02,0-3.57,0.27-4.65,0.82c-1.08,0.55-1.61,1.3-1.61,2.26c0,0.74,0.32,1.37,0.96,1.9
			c0.64,0.53,1.44,0.96,2.41,1.3c0.96,0.34,2.33,0.75,4.09,1.23c2.63,0.7,4.79,1.4,6.47,2.09c1.69,0.69,3.14,1.71,4.36,3.06
			c1.22,1.35,1.83,3.11,1.83,5.29c0,3.53-1.26,6.13-3.78,7.8c-2.52,1.67-5.96,2.5-10.33,2.5
			C594.71,188.32,592.39,187.93,590.29,187.14z"/>
	</g>
</g>
</svg>
