<?xml version="1.0" encoding="UTF-8" standalone="no"?>
<!-- Created with Inkscape (http://www.inkscape.org/) -->

<svg
   width="320"
   height="320"
   viewBox="0 0 84.666657 84.666656"
   version="1.1"
   id="svg1"
   inkscape:version="1.3.2 (091e20e, 2023-11-25)"
   sodipodi:docname="iids_icon_gold.svg"
   inkscape:export-filename="icon_144x144.png"
   inkscape:export-xdpi="43.200001"
   inkscape:export-ydpi="43.200001"
   xmlns:inkscape="http://www.inkscape.org/namespaces/inkscape"
   xmlns:sodipodi="http://sodipodi.sourceforge.net/DTD/sodipodi-0.dtd"
   xmlns="http://www.w3.org/2000/svg"
   xmlns:svg="http://www.w3.org/2000/svg">
  <sodipodi:namedview
     id="namedview1"
     pagecolor="#ffffff"
     bordercolor="#000000"
     borderopacity="0.25"
     inkscape:showpageshadow="2"
     inkscape:pageopacity="0.0"
     inkscape:pagecheckerboard="0"
     inkscape:deskcolor="#d1d1d1"
     inkscape:document-units="mm"
     inkscape:zoom="0.92737795"
     inkscape:cx="-32.888425"
     inkscape:cy="82.49064"
     inkscape:window-width="1392"
     inkscape:window-height="1212"
     inkscape:window-x="2240"
     inkscape:window-y="25"
     inkscape:window-maximized="0"
     inkscape:current-layer="layer1"
     inkscape:export-bgcolor="#050505ff" />
  <defs
     id="defs1" />
  <g
     inkscape:label="Layer 1"
     inkscape:groupmode="layer"
     id="layer1"
     transform="translate(-77.257986,-116.41667)">
    <path
       class="st0"
       d="m 146.72335,142.35113 -27.06688,15.6263 -25.934451,-14.99923 2.823104,-1.62455 23.100767,13.33765 24.23054,-13.98588 -24.30991,-14.01497 -4.60375,2.6564 v 17.88319 l 5.26256,3.03742 V 133.3844 l 2.87073,1.65893 v 12.9011 l 5.31283,-3.06653 v -6.76804 l 3.0189,1.75155 c -0.0688,0.23017 -0.10848,0.47625 -0.10848,0.7276 0,1.40229 1.14035,2.54528 2.54529,2.54528 1.40229,0 2.54529,-1.14035 2.54529,-2.54528 0,-1.40494 -1.14035,-2.54529 -2.54529,-2.54529 -0.71438,0 -1.35996,0.29633 -1.82298,0.77258 l -4.826,-2.77283 v 8.14386 l -2.92894,1.6907 v -11.52525 l -5.25462,-3.03742 -0.003,16.88571 -2.87866,-1.66159 v -16.5047 l 3.429,-1.97908 21.90749,12.64973 -21.84399,12.61003 -23.095481,-13.33499 -4.7625,2.74637 v 0.57149 l 27.265311,15.72949 v 30.06989 l -2.95011,-1.69863 0.0688,-26.67264 -24.384001,-14.0679 -0.02381,28.14373 4.6355,2.67758 15.687141,-9.05668 v -6.02457 l -14.657912,8.46138 v -3.41048 l 11.117792,-6.41879 -5.31548,-3.06917 -5.802312,3.34963 -0.01323,-3.45017 c 1.11125,-0.27252 1.939396,-1.27529 1.939396,-2.46856 0,-1.40229 -1.140355,-2.54529 -2.545292,-2.54529 -1.404938,0 -2.545292,1.14035 -2.545292,2.54529 0,1.19327 0.828146,2.19604 1.939396,2.46856 l -0.0026,5.54037 7.027334,-4.06135 2.93158,1.69333 -9.927164,5.73088 v 6.16214 L 110.88788,164.465 v 3.2729 l -14.454185,8.39258 -3.47927,-2.00819 0.04233,-25.38942 21.957765,12.69207 -0.0423,26.6356 4.7625,2.74902 0.58472,-0.33602 v -31.44573 l 25.96621,-14.99129 v 3.28613 l -23.18279,13.42495 0.0714,28.12786 24.30727,-14.02821 v -5.4954 l -15.67921,-9.05404 -5.25198,3.03477 14.68967,8.47991 -2.87867,1.66157 -11.08075,-6.39761 v 6.06424 l 5.83142,3.3655 -2.90513,1.73037 c -0.46566,-0.53446 -1.15093,-0.87577 -1.91558,-0.87577 -1.40229,0 -2.54529,1.14036 -2.54529,2.54529 0,1.40495 1.14035,2.54529 2.54529,2.54529 1.40494,0 2.54529,-1.14035 2.54529,-2.54529 0,-0.20373 -0.0265,-0.40216 -0.0714,-0.59266 l 4.7334,-2.80458 -7.02204,-4.05342 v -3.30994 l 9.89012,5.70971 5.26257,-3.03742 -14.64998,-8.45873 2.90248,-1.64042 14.41714,8.3238 v 4.11691 l -21.90485,12.64709 -0.0662,-25.37884 23.15369,-13.37733 v -5.29431 z m -12.85611,-3.09297 c 0.73555,0 1.3335,0.59794 1.3335,1.33349 0,0.73554 -0.59795,1.3335 -1.3335,1.3335 -0.73554,0 -1.3335,-0.59796 -1.3335,-1.3335 -0.003,-0.73555 0.59796,-1.33349 1.3335,-1.33349 z m -38.391033,16.13428 c 0,-0.73553 0.597958,-1.33349 1.3335,-1.33349 0.735541,0 1.3335,0.59796 1.3335,1.33349 0,0.73555 -0.597959,1.33351 -1.3335,1.33351 -0.735542,0 -1.3335,-0.59796 -1.3335,-1.33351 z m 32.750123,25.8498 c -0.73554,0 -1.3335,-0.59796 -1.3335,-1.3335 0,-0.73554 0.59796,-1.3335 1.3335,-1.3335 0.73554,0 1.3335,0.59796 1.3335,1.3335 0,0.73289 -0.59796,1.3335 -1.3335,1.3335 z"
       id="path1"
       style="fill:#f0b31d;stroke-width:0.264583" />
  </g>
</svg>
